{"title":"True.Blood.S06E08.WEB-DL.XviD-BiT","uid":8780174,"size":482357753,"categoryP":"video","categoryS":"tv_shows","magnet":"?xt=urn:btih:6d2b888c2e131351ce190cb923516d0362785d1a&amp;dn=True.Blood.S06E08.WEB-DL.XviD-BiT&amp;tr=udp%3A%2F%2Ftracker.openbittorrent.com%3A80&amp;tr=udp%3A%2F%2Fopen.demonii.com%3A1337&amp;tr=udp%3A%2F%2Ftracker.coppersurfer.tk%3A6969&amp;tr=udp%3A%2F%2Fexodus.desync.com%3A6969","seeders":1,"leechers":0,"uploader":"Thhaque","files":2,"time":1375693089,"description":"True Blood\n\nGenre: Drama, Fantasy\nYear: 2013\nCountry: USA\nRuntime: 55 min\nProducer: Alan Ball\nCast: Anna Paquin, Ryan Kwanten, Stephen Moyer, Sam Trammell, Rutina Wesley\n\nGeneral\nComplete name                            : True.Blood.S06E08.WEB-DL.XviD-BiT.avi\nFormat                                   : AVI\nFormat/Info                              : Audio Video Interleave\nFile size                                : 460 MiB\nDuration                                 : 57mn 7s\nOverall bit rate                         : 1 126 Kbps\n\nVideo\nID                                       : 0\nFormat                                   : MPEG-4 Visual\nFormat profile                           : Advanced Simple@L5\nFormat settings, BVOP                    : 2\nFormat settings, QPel                    : No\nFormat settings, GMC                     : No warppoints\nFormat settings, Matrix                  : Default (H.263)\nCodec ID                                 : XVID\nCodec ID/Hint                            : XviD\nDuration                                 : 57mn 7s\nBit rate                                 : 992 Kbps\nWidth                                    : 640 pixels\nHeight                                   : 360 pixels\nDisplay aspect ratio                     : 16:9\nFrame rate                               : 23.976 fps\nColor space                              : YUV\nChroma subsampling                       : 4:2:0\nBit depth                                : 8 bits\nScan type                                : Progressive\nCompression mode                         : Lossy\nBits/(Pixel*Frame)                       : 0.180\nStream size                              : 405 MiB (88%)\nWriting library                          : XviD 1.2.1 (UTC 2008-12-04)\n\nAudio\nID                                       : 1\nFormat                                   : MPEG Audio\nFormat version                           : Version 1\nFormat profile                           : Layer 3\nMode                                     : Joint stereo\nMode extension                           : MS Stereo\nCodec ID                                 : 55\nCodec ID/Hint                            : MP3\nDuration                                 : 57mn 7s\nBit rate mode                            : Constant\nBit rate                                 : 128 Kbps\nChannel(s)                               : 2 channels\nSampling rate                            : 48.0 KHz\nCompression mode                         : Lossy\nStream size                              : 52.3 MiB (11%)\nAlignment                                : Aligned on interleaves\nInterleave, duration                     : 167 ms (4.00 video frames)\nInterleave, preload duration             : 216 ms\nTitle                                    : True.Blood.S06E08.WEB-DL-BiT\nWriting library                          : LAME3.99r\nEncoding settings                        : -m j -V 4 -q 2 -lowpass 17 -b 128\n\n.: Plot :.\nBased on the popular 'Southern Vampire,' book series by Charlaine Harris, &quot;True Blood&quot; follows the adventures of a small-town cocktail waitress Sookie Stackhouse (who all her life was an outsider due to her gift/curse of being a telepath) and how her life is turned upside down when a member of the undead (the vampire race 'came out of the coffin' several years earlier) walks into her life one fateful night.","torrent":{"xt":"urn:btih:6d2b888c2e131351ce190cb923516d0362785d1a","amp;dn":"True.Blood.S06E08.WEB-DL.XviD-BiT","amp;tr":["udp%3A%2F%2Ftracker.openbittorrent.com%3A80","udp%3A%2F%2Fopen.demonii.com%3A1337","udp%3A%2F%2Ftracker.coppersurfer.tk%3A6969","udp%3A%2F%2Fexodus.desync.com%3A6969"],"infoHash":"6d2b888c2e131351ce190cb923516d0362785d1a","infoHashBuffer":{"type":"Buffer","data":[109,43,136,140,46,19,19,81,206,25,12,185,35,81,109,3,98,120,93,26]},"announce":[],"urlList":[]}}